<svg width="138" height="146" viewBox="0 0 138 146" fill="none" xmlns="http://www.w3.org/2000/svg">
<circle cx="69" cy="77" r="69" fill="#0493A3"/>
<path fill-rule="evenodd" clip-rule="evenodd" d="M129.753 9.79839L130.675 12.2905C130.768 12.537 130.963 12.7317 131.209 12.8267L133.698 13.7488C134.173 13.9303 134.412 14.4629 134.232 14.9389C134.138 15.1854 133.944 15.3813 133.698 15.4751L131.209 16.3984C130.963 16.491 130.768 16.6857 130.675 16.9346L129.753 19.4267C129.573 19.9028 129.04 20.142 128.565 19.9617C128.318 19.8679 128.124 19.6731 128.03 19.4267L127.108 16.9346C127.016 16.6857 126.822 16.491 126.574 16.3984L124.087 15.4751C123.61 15.2936 123.372 14.761 123.553 14.2837C123.645 14.0373 123.84 13.8425 124.087 13.7488L126.574 12.8267C126.822 12.7317 127.016 12.537 127.108 12.2905L128.03 9.79839C128.211 9.32232 128.743 9.08068 129.219 9.26221C129.465 9.35598 129.66 9.55074 129.753 9.79839Z" fill="#FFCA00"/>
<path fill-rule="evenodd" clip-rule="evenodd" d="M111.174 29.0788L112.402 32.4028C112.527 32.731 112.786 32.9907 113.115 33.1157L116.432 34.3468C117.067 34.5872 117.386 35.2989 117.145 35.9336C117.02 36.263 116.761 36.5227 116.432 36.6477L113.115 37.8788C112.786 38.0038 112.527 38.2635 112.402 38.5929L111.174 41.9157C110.934 42.5517 110.223 42.8715 109.59 42.6298C109.261 42.5048 109 42.2451 108.877 41.9157L107.648 38.5929C107.523 38.2635 107.264 38.0038 106.935 37.8788L103.618 36.6477C102.984 36.4073 102.664 35.6968 102.906 35.0608C103.03 34.7315 103.29 34.4706 103.618 34.3468L106.935 33.1157C107.264 32.9907 107.523 32.731 107.648 32.4028L108.877 29.0788C109.117 28.444 109.826 28.123 110.461 28.3647C110.79 28.4897 111.049 28.7494 111.174 29.0788Z" fill="#FFCA00"/>
<path fill-rule="evenodd" clip-rule="evenodd" d="M106.983 1.75471L108.006 4.52454C108.109 4.79864 108.327 5.01503 108.6 5.11962L111.364 6.14389C111.893 6.34465 112.158 6.93853 111.958 7.46749C111.855 7.74159 111.639 7.95799 111.364 8.06258L108.6 9.08924C108.327 9.19263 108.109 9.40902 108.006 9.68312L106.983 12.4518C106.782 12.9819 106.191 13.2488 105.661 13.048C105.388 12.9435 105.172 12.7271 105.067 12.4518L104.044 9.68312C103.941 9.40902 103.725 9.19263 103.451 9.08924L100.686 8.06258C100.158 7.86181 99.8918 7.26913 100.092 6.73897C100.195 6.46607 100.411 6.24848 100.686 6.14389L103.451 5.11962C103.725 5.01503 103.941 4.79864 104.044 4.52454L105.067 1.75471C105.269 1.22574 105.859 0.958858 106.389 1.15962C106.662 1.26421 106.878 1.47941 106.983 1.75471Z" fill="#FFCA00"/>
<g filter="url(#filter0_d)">
<path d="M105.468 66.5C105.474 66.0424 105.389 65.5881 105.219 65.1634C105.048 64.7387 104.795 64.352 104.475 64.0255L83.4745 43.0255C83.148 42.7048 82.7613 42.4518 82.3366 42.2812C81.9119 42.1106 81.4576 42.0257 81 42.0315V42H53C50.2152 42 47.5445 43.1062 45.5754 45.0754C43.6062 47.0445 42.5 49.7152 42.5 52.5V77C42.5 77.9283 42.8687 78.8185 43.5251 79.4749C44.1815 80.1313 45.0717 80.5 46 80.5C46.9283 80.5 47.8185 80.1313 48.4749 79.4749C49.1313 78.8185 49.5 77.9283 49.5 77V52.5C49.5 51.5717 49.8687 50.6815 50.5251 50.0251C51.1815 49.3687 52.0717 49 53 49H77.5V59.5C77.5 62.2848 78.6062 64.9555 80.5754 66.9246C82.5445 68.8938 85.2152 70 88 70H98.5V77C98.5 77.9283 98.8687 78.8185 99.5251 79.4749C100.182 80.1313 101.072 80.5 102 80.5C102.928 80.5 103.818 80.1313 104.475 79.4749C105.131 78.8185 105.5 77.9283 105.5 77V66.5H105.468ZM88 63C87.0717 63 86.1815 62.6313 85.5251 61.9749C84.8687 61.3185 84.5 60.4283 84.5 59.5V53.949L93.551 63H88Z" fill="white"/>
<path d="M102 84C101.072 84 100.182 84.3687 99.5251 85.0251C98.8687 85.6815 98.5 86.5717 98.5 87.5V94.5C98.5 95.4283 98.8687 96.3185 99.5251 96.9749C100.182 97.6313 101.072 98 102 98C102.928 98 103.818 97.6313 104.475 96.9749C105.131 96.3185 105.5 95.4283 105.5 94.5V87.5C105.5 86.5717 105.131 85.6815 104.475 85.0251C103.818 84.3687 102.928 84 102 84Z" fill="white"/>
<path d="M57.7705 105H53C52.3078 105 51.6311 104.795 51.0555 104.411C50.4798 104.026 50.0311 103.48 49.766 102.841C49.5965 102.404 49.3413 102.006 49.0153 101.67C48.6894 101.334 48.2993 101.067 47.8683 100.885C47.4372 100.702 46.974 100.608 46.5059 100.608C46.0378 100.607 45.5744 100.701 45.1431 100.883C44.7118 101.065 44.3214 101.331 43.9949 101.667C43.6685 102.002 43.4127 102.4 43.2426 102.836C43.0725 103.272 42.9916 103.738 43.0048 104.206C43.0179 104.674 43.1247 105.134 43.319 105.56C44.1189 107.468 45.4644 109.097 47.1867 110.242C48.909 111.388 50.9314 112 53 112H57.7705C58.6988 112 59.589 111.631 60.2454 110.975C60.9017 110.319 61.2705 109.428 61.2705 108.5C61.2705 107.572 60.9017 106.682 60.2454 106.025C59.589 105.369 58.6988 105 57.7705 105Z" fill="white"/>
<path d="M80.503 105H67.5145C66.5862 105 65.696 105.369 65.0396 106.025C64.3832 106.682 64.0145 107.572 64.0145 108.5C64.0145 109.428 64.3832 110.318 65.0396 110.975C65.696 111.631 66.5862 112 67.5145 112H80.503C81.4313 112 82.3215 111.631 82.9779 110.975C83.6343 110.318 84.003 109.428 84.003 108.5C84.003 107.572 83.6343 106.682 82.9779 106.025C82.3215 105.369 81.4313 105 80.503 105Z" fill="white"/>
<path d="M102.812 100.951C101.956 100.593 100.992 100.59 100.134 100.942C99.2754 101.295 98.592 101.974 98.234 102.83C97.9705 103.471 97.5225 104.02 96.9467 104.406C96.3709 104.793 95.6934 104.999 95 105H90.2505C89.3222 105 88.432 105.369 87.7756 106.025C87.1192 106.682 86.7505 107.572 86.7505 108.5C86.7505 109.428 87.1192 110.319 87.7756 110.975C88.432 111.631 89.3222 112 90.2505 112H95C97.0746 112 99.1025 111.385 100.828 110.233C102.553 109.081 103.899 107.444 104.695 105.528C104.872 105.104 104.964 104.649 104.965 104.19C104.966 103.73 104.877 103.275 104.702 102.849C104.527 102.424 104.27 102.038 103.946 101.712C103.622 101.386 103.236 101.127 102.812 100.951V100.951Z" fill="white"/>
<path d="M46 98C46.9283 98 47.8185 97.6313 48.4749 96.9749C49.1313 96.3185 49.5 95.4283 49.5 94.5V87.5C49.5 86.5717 49.1313 85.6815 48.4749 85.0251C47.8185 84.3687 46.9283 84 46 84C45.0717 84 44.1815 84.3687 43.5251 85.0251C42.8687 85.6815 42.5 86.5717 42.5 87.5V94.5C42.5 95.4283 42.8687 96.3185 43.5251 96.9749C44.1815 97.6313 45.0717 98 46 98Z" fill="white"/>
</g>
<defs>
<filter id="filter0_d" x="23" y="35" width="96" height="96" filterUnits="userSpaceOnUse" color-interpolation-filters="sRGB">
<feFlood flood-opacity="0" result="BackgroundImageFix"/>
<feColorMatrix in="SourceAlpha" type="matrix" values="0 0 0 0 0 0 0 0 0 0 0 0 0 0 0 0 0 0 127 0"/>
<feOffset dx="-3" dy="6"/>
<feGaussianBlur stdDeviation="3"/>
<feColorMatrix type="matrix" values="0 0 0 0 0.0177778 0 0 0 0 0.463365 0 0 0 0 0.533333 0 0 0 1 0"/>
<feBlend mode="normal" in2="BackgroundImageFix" result="effect1_dropShadow"/>
<feBlend mode="normal" in="SourceGraphic" in2="effect1_dropShadow" result="shape"/>
</filter>
</defs>
</svg>
